<?xml version="1.0" encoding="UTF-8"?>
<!-- Generator: Adobe Illustrator 27.4.0, SVG Export Plug-In . SVG Version: 6.00 Build 0)  -->
<svg xmlns="http://www.w3.org/2000/svg" xmlns:xlink="http://www.w3.org/1999/xlink" version="1.1" id="Layer_1" x="0px" y="0px" viewBox="0 0 612.27 167.4" style="enable-background:new 0 0 612.27 167.4;" xml:space="preserve">
<style type="text/css">
	.st0{fill:#FFFFFF;}
</style>
<g>
	<polygon class="st0" points="161.47,99.88 146.46,99.88 146.46,41.6 127.25,41.6 127.25,29.11 180.69,29.11 180.69,41.6    161.47,41.6  "></polygon>
	<g>
		<path class="st0" d="M205.25,99.88H190.5V45.76h14.76V99.88z M189.86,31.77c0-4.81,2.68-7.21,8.04-7.21c5.35,0,8.04,2.4,8.04,7.21    c0,2.3-0.67,4.08-2.01,5.35c-1.34,1.27-3.35,1.91-6.03,1.91C192.54,39.03,189.86,36.62,189.86,31.77"></path>
		<path class="st0" d="M244.95,56.56c-3.65,0-6.31,1.12-7.99,3.37c-1.68,2.24-2.55,5.94-2.61,11.11v1.6c0,5.81,0.87,9.97,2.59,12.49    c1.73,2.52,4.46,3.78,8.21,3.78c3.03,0,5.44-1.39,7.23-4.18c1.79-2.79,2.69-6.85,2.69-12.18c0-5.32-0.91-9.32-2.71-11.98    C250.55,57.89,248.08,56.56,244.95,56.56 M249.69,44.75c6.39,0,11.39,2.49,15,7.48c3.61,4.99,5.42,11.82,5.42,20.5    c0,8.93-1.86,15.86-5.59,20.76c-3.72,4.9-8.8,7.36-15.22,7.36c-6.36,0-11.34-2.31-14.96-6.92h-1.01l-2.47,5.96h-11.28V24.56h14.76    v17.52c0,2.22-0.19,5.79-0.58,10.7h0.58C237.8,47.42,242.91,44.75,249.69,44.75"></path>
		<path class="st0" d="M304.63,55.25c-3.13,0-5.58,0.99-7.36,2.98c-1.78,1.98-2.79,4.8-3.05,8.44h20.72    c-0.07-3.64-1.02-6.46-2.86-8.44C310.25,56.24,307.76,55.25,304.63,55.25 M306.71,100.84c-8.71,0-15.52-2.4-20.42-7.21    c-4.91-4.81-7.36-11.62-7.36-20.42c0-9.07,2.27-16.08,6.8-21.03c4.54-4.95,10.8-7.43,18.81-7.43c7.64,0,13.6,2.18,17.86,6.54    c4.26,4.35,6.39,10.37,6.39,18.05v7.16h-34.9c0.16,4.19,1.4,7.47,3.72,9.83c2.32,2.35,5.58,3.53,9.78,3.53    c3.26,0,6.34-0.34,9.24-1.02c2.9-0.68,5.94-1.76,9.1-3.24v11.42c-2.58,1.29-5.34,2.25-8.28,2.88    C314.52,100.53,310.94,100.84,306.71,100.84"></path>
		<path class="st0" d="M370.65,44.75c2,0,3.66,0.14,4.99,0.44l-1.12,13.84c-1.19-0.32-2.65-0.48-4.35-0.48    c-4.71,0-8.38,1.21-11.02,3.63c-2.63,2.42-3.94,5.8-3.94,10.16v27.54h-14.76V45.76h11.18l2.18,9.1h0.72    c1.68-3.03,3.94-5.48,6.8-7.33C364.19,45.68,367.3,44.75,370.65,44.75"></path>
		<path class="st0" d="M424.01,83.81c0,5.55-1.93,9.78-5.78,12.68c-3.85,2.9-9.62,4.35-17.3,4.35c-3.94,0-7.29-0.26-10.07-0.8    c-2.78-0.53-5.37-1.31-7.79-2.35V85.5c2.74,1.29,5.83,2.38,9.27,3.24c3.43,0.87,6.46,1.31,9.07,1.31c5.36,0,8.04-1.55,8.04-4.64    c0-1.16-0.35-2.11-1.06-2.84c-0.71-0.72-1.94-1.55-3.68-2.47c-1.74-0.92-4.07-1.99-6.97-3.22c-4.16-1.74-7.22-3.35-9.17-4.84    c-1.95-1.48-3.37-3.19-4.26-5.11c-0.89-1.92-1.33-4.28-1.33-7.09c0-4.81,1.86-8.53,5.59-11.16c3.73-2.63,9.01-3.94,15.85-3.94    c6.52,0,12.86,1.42,19.02,4.26l-4.45,10.65c-2.71-1.16-5.24-2.11-7.6-2.86c-2.36-0.74-4.76-1.11-7.21-1.11    c-4.36,0-6.54,1.18-6.54,3.53c0,1.32,0.7,2.47,2.11,3.44c1.4,0.97,4.48,2.41,9.22,4.31c4.23,1.71,7.32,3.31,9.29,4.79    c1.97,1.49,3.42,3.2,4.36,5.13C423.55,78.82,424.01,81.13,424.01,83.81"></path>
		<path class="st0" d="M446.8,72.72c0,5.36,0.88,9.41,2.64,12.15c1.76,2.74,4.62,4.12,8.59,4.12c3.93,0,6.77-1.36,8.5-4.09    c1.73-2.73,2.59-6.78,2.59-12.17c0-5.36-0.87-9.37-2.61-12.05c-1.74-2.68-4.6-4.02-8.57-4.02c-3.94,0-6.78,1.33-8.52,3.99    C447.67,63.31,446.8,67.33,446.8,72.72 M484.21,72.72c0,8.81-2.32,15.7-6.97,20.67c-4.65,4.97-11.12,7.45-19.41,7.45    c-5.19,0-9.78-1.14-13.75-3.41c-3.97-2.28-7.02-5.54-9.15-9.8c-2.13-4.26-3.2-9.23-3.2-14.91c0-8.84,2.31-15.71,6.92-20.62    c4.61-4.9,11.1-7.36,19.45-7.36c5.2,0,9.78,1.13,13.75,3.39c3.97,2.26,7.02,5.51,9.15,9.73    C483.15,62.09,484.21,67.05,484.21,72.72"></path>
		<path class="st0" d="M526.52,56.85h-12.78v43.03h-14.76V56.85h-8.13v-7.12l8.13-3.97V41.8c0-6.17,1.52-10.67,4.55-13.5    c3.03-2.84,7.89-4.26,14.57-4.26c5.1,0,9.63,0.75,13.6,2.27l-3.78,10.84c-2.97-0.94-5.71-1.4-8.23-1.4c-2.1,0-3.61,0.62-4.55,1.86    c-0.93,1.24-1.4,2.83-1.4,4.77v3.39h12.78V56.85z"></path>
		<path class="st0" d="M563.54,89.08c2.58,0,5.68-0.56,9.3-1.69v10.98c-3.68,1.65-8.2,2.47-13.56,2.47c-5.9,0-10.2-1.49-12.9-4.48    c-2.7-2.98-4.04-7.46-4.04-13.43V56.85h-7.06V50.6l8.13-4.94l4.26-11.42h9.44v11.52h15.15v11.09H557.1v26.09    c0,2.1,0.59,3.65,1.77,4.65C560.05,88.58,561.6,89.08,563.54,89.08"></path>
	</g>
	<path class="st0" d="M573.51,16.39v4.05h5.36V36h4.56V20.45h5.41v-4.05H573.51z M605.75,16.39l-4.62,13.86l-4.35-13.86h-6.71V36   h4.43V24.63l-0.11-3.01h0.19L599.06,36h3.86l4.73-14.38h0.17l-0.11,3.29V36h4.57v-19.6H605.75z"></path>
	<g>
		<path class="st0" d="M159.71,152.95v-2.43h-5.06c-3.34,0-4.24,1.26-4.24,2.79c0,1.77,1.49,2.91,4.01,2.91    C156.81,156.21,158.89,155.11,159.71,152.95 M164.62,147.22v12.29h-4.63v-2.55c-1.18,1.8-3.46,2.83-6.6,2.83    c-4.79,0-7.81-2.63-7.81-6.28c0-3.5,2.36-6.24,8.72-6.24h5.42v-0.32c0-2.86-1.73-4.55-5.22-4.55c-2.36,0-4.79,0.79-6.36,2.08    l-1.93-3.57c2.24-1.73,5.5-2.59,8.87-2.59C161.13,138.31,164.62,141.17,164.62,147.22"></path>
		<path class="st0" d="M180.25,145.77c0-8.21,6.28-14.13,14.72-14.13c4.47,0,8.32,1.61,10.87,4.59l-3.3,3.1    c-2-2.16-4.48-3.22-7.34-3.22c-5.69,0-9.81,4-9.81,9.66c0,5.65,4.12,9.66,9.81,9.66c2.86,0,5.34-1.06,7.34-3.26l3.3,3.14    c-2.55,2.98-6.4,4.59-10.91,4.59C186.53,159.9,180.25,153.97,180.25,145.77"></path>
		<path class="st0" d="M210.32,147.53v-15.51h5.1v15.31c0,5.65,2.55,8.09,6.99,8.09c4.44,0,6.95-2.44,6.95-8.09v-15.31h5.03v15.51    c0,8.01-4.51,12.37-12.01,12.37C214.84,159.9,210.32,155.54,210.32,147.53"></path>
	</g>
	<polygon class="st0" points="241.54,132.03 246.64,132.03 246.64,155.19 261.01,155.19 261.01,159.51 241.54,159.51  "></polygon>
	<polygon class="st0" points="268.08,136.34 258.97,136.34 258.97,132.03 282.29,132.03 282.29,136.34 273.19,136.34 273.19,159.51    268.08,159.51  "></polygon>
	<g>
		<path class="st0" d="M285.4,147.53v-15.51h5.1v15.31c0,5.65,2.55,8.09,6.99,8.09c4.44,0,6.95-2.44,6.95-8.09v-15.31h5.03v15.51    c0,8.01-4.51,12.37-12.01,12.37C289.91,159.9,285.4,155.54,285.4,147.53"></path>
		<path class="st0" d="M327.68,136.34h-5.97v10.95h5.97c4.48,0,6.79-2.04,6.79-5.5C334.47,138.35,332.16,136.34,327.68,136.34     M334.59,159.51l-5.62-8.05c-0.35,0.04-0.71,0.04-1.06,0.04h-6.2v8.01h-5.1v-27.48h11.31c7.22,0,11.7,3.69,11.7,9.78    c0,4.16-2.12,7.22-5.85,8.67l6.32,9.03H334.59z"></path>
	</g>
	<path class="st0" d="M361.45,149.14l-5.18-12.01l-5.14,12.01H361.45z M363.14,153.15H349.4l-2.71,6.36h-5.26l12.37-27.48h5.03   l12.41,27.48h-5.34L363.14,153.15z"></path>
	<g>
		<path class="st0" d="M383.36,149.03c0-6.28,4.71-10.72,11.35-10.72c4.08,0,7.34,1.69,8.95,4.87l-3.77,2.2    c-1.26-2-3.14-2.91-5.22-2.91c-3.61,0-6.36,2.51-6.36,6.56c0,4.08,2.75,6.56,6.36,6.56c2.08,0,3.97-0.9,5.22-2.9l3.77,2.2    c-1.61,3.14-4.87,4.91-8.95,4.91C388.07,159.78,383.36,155.31,383.36,149.03L383.36,149.03z"></path>
		<path class="st0" d="M417,138.31c-6.43,0-11.16,4.43-11.16,10.72c0,6.29,4.72,10.76,11.16,10.76c6.52,0,11.2-4.47,11.2-10.76    C428.2,142.74,423.52,138.31,417,138.31z M417,155.59c-3.53,0-6.21-2.56-6.21-6.56c0-4,2.68-6.56,6.21-6.56    c3.57,0,6.25,2.56,6.25,6.56C423.25,153.03,420.57,155.59,417,155.59z"></path>
		<path class="st0" d="M467.97,147.49v12.01h-4.91v-11.38c0-3.73-1.73-5.54-4.71-5.54c-3.22,0-5.46,2.12-5.46,6.28v10.64h-4.91    v-11.38c0-3.73-1.73-5.54-4.71-5.54c-3.26,0-5.45,2.12-5.45,6.28v10.64h-4.91v-20.96h4.67v2.67c1.57-1.88,4.01-2.9,6.87-2.9    c3.06,0,5.61,1.14,7.07,3.49c1.69-2.16,4.51-3.49,7.85-3.49C464.43,138.31,467.97,141.17,467.97,147.49L467.97,147.49z"></path>
		<path class="st0" d="M485.87,138.31c-2.87,0-5.3,0.99-6.95,2.99v-2.76h-4.68v28.6h4.91v-10.19c1.69,1.94,4.04,2.85,6.72,2.85    c6.12,0,10.64-4.25,10.64-10.76C496.51,142.55,492,138.31,485.87,138.31z M485.32,155.59c-3.53,0-6.23-2.56-6.23-6.56    c0-4,2.7-6.56,6.23-6.56c3.55,0,6.21,2.56,6.21,6.56C491.52,153.03,488.86,155.59,485.32,155.59z"></path>
		<path class="st0" d="M508.93,138.31c-3.38,0-6.64,0.87-8.89,2.6l1.94,3.57c1.57-1.3,4-2.08,6.35-2.08c3.51,0,5.22,1.69,5.22,4.56    v0.31h-5.4c-6.37,0-8.72,2.74-8.72,6.25c0,3.65,3.01,6.29,7.81,6.29c3.13,0,5.4-1.03,6.6-2.85v2.56h4.62v-12.29    C518.45,141.17,514.97,138.31,508.93,138.31z M513.54,152.95c-0.82,2.17-2.91,3.26-5.3,3.26c-2.52,0-4-1.13-4-2.91    c0-1.53,0.91-2.78,4.25-2.78h5.05V152.95z"></path>
		<path class="st0" d="M545.4,147.49v12.01h-4.91v-11.38c0-3.73-1.85-5.54-4.99-5.54c-3.49,0-5.85,2.12-5.85,6.32v10.6h-4.91v-20.96    h4.67v2.71c1.61-1.92,4.16-2.94,7.22-2.94C541.67,138.31,545.4,141.17,545.4,147.49L545.4,147.49z"></path>
		<path class="st0" d="M570.88,138.54l-9.82,22.65c-1.93,4.75-4.6,6.2-8.09,6.2c-2.08,0-4.28-0.71-5.61-1.92l1.96-3.61    c0.94,0.91,2.28,1.45,3.61,1.45c1.73,0,2.75-0.82,3.69-2.91l0.35-0.82l-9.15-21.04h5.1l6.6,15.51l6.64-15.51H570.88z"></path>
		<path class="st0" d="M32.97,96.85c9.44,8.97,20.5,14.21,32.87,15.55c3.42,0.37,6.83,0.58,10.14,0.58c2,0,3.96-0.06,5.86-0.21    c-0.16,0.06-0.35,0.14-0.52,0.21c-6.8,2.74-14.27,4.27-22.06,4.27c-13.67,0-26.27-4.64-36.27-12.43C8.99,93.98,0,77.03,0,57.96    c0-13.79,4.72-26.52,12.66-36.58c-1.15,5.51-1.22,11.01-0.16,15.88c2.93,16.54,19.01,33.98,43.24,33.98    c1.22,0,2.45-0.04,3.69-0.14c5.61-0.19,11.49-1.9,16.72-3.42c2.37-0.7,5.32-1.57,7.01-1.81c0.56-0.08,1.08-0.17,1.51-0.12    c2.57,0.3,0.04,5.11-8.19,10.52c-4.27,2.78-8.87,4.56-13.65,5.28c-1.75,0.27-3.48,0.39-5.3,0.39c-3.01,0-6.1-0.35-9.4-1.05    c-1.65-0.37-3.34-0.82-5.01-1.34c-1.01-0.31-2.04-0.45-3.05-0.45c-2.25,0-4.43,0.74-6.23,2.08    C28.35,85.88,30.15,94.16,32.97,96.85z"></path>
		<path class="st0" d="M112.26,84.55c-1.13,2.21-2.37,4.31-3.75,6.33c-0.04,0.06-0.08,0.12-0.12,0.19    c-9.93,11.2-27.63,12.59-41.43,11.08c-12.32-1.34-21.08-7.27-26.88-12.78c1.73,0.54,3.69,1.07,5.84,1.55    c6.54,1.4,12.56,1.67,18.43,0.8c6.29-0.95,12.27-3.26,17.77-6.85c8.74-5.73,13.63-11.53,14.5-17.24c0.45-2.91-0.25-5.71-1.92-7.73    c-0.23-0.27-0.52-0.6-0.8-0.82c-3.36-2.8-6.43-4.25-12.17-3.44c-2.39,0.35-5.36,1.22-8.5,2.14c-4.68,1.36-10,2.91-14.35,3.01    c-19.49,1.61-33.96-11.92-36.27-25.53C20.07,23.95,25.8,8.34,38.17,2.63c0.29-0.14,2.17-0.85,2.37-0.93    c10.83-3.48,23.11-1.01,33.34,2.04c7.61,2.29,5.4,13.46-2.41,12.74C60.63,15.5,45.7,13.6,39.62,24.01    c-3.81,11.05,7.42,18.64,17.82,17.14c9.51-1.42,20.21-8.06,31.8-6.12c1.55,0.21,3.03,0.52,4.45,0.93c0.47,0.14,0.93,0.29,1.4,0.47    c6.29,2.14,11.49,6.33,15.24,11.61C117.91,58.71,118.16,72.86,112.26,84.55z"></path>
	</g>
</g>
</svg>
